# CAD Exchanger 3.7.0 (cadexchanger.com)
# Object Count: 1
mtllib anime1.mtl
g pPlane1
v -77.005541 73.907897 -27.613557
v -64.924357 76.993454 -25.767303
v -81.009225 75.045784 -33.517225
v -66.946798 82.559332 -33.517225
v -86.152398 63.982403 -27.613557
v -87.539028 67.934355 -33.517225
v -88.920286 58.376191 -27.613557
v -91.598410 57.907665 -33.517225
v -74.277410 54.446817 -24.247653
v -84.087491 55.764502 -33.517225
v -80.963212 54.020833 -33.517225
v -88.737591 52.908261 -27.544701
v -91.407552 53.293984 -33.517225
v -79.389148 48.152966 -27.303079
v -86.999178 46.489251 -33.517225
v -70.380704 42.770090 -27.075811
v -73.603277 40.219743 -33.517225
v -58.107299 39.135483 -26.728149
v -57.607408 34.067984 -33.517225
v -39.259571 40.254672 -24.780285
v -39.610816 30.419970 -33.517221
v -18.172750 42.389342 -24.580283
v -9.663327 36.151385 -33.517221
v 4.270774 45.143881 -25.942713
v 10.141061 36.809801 -33.517221
v 26.650344 49.674480 -27.613554
v 34.364860 44.042415 -33.517221
v 44.690342 53.299701 -31.422061
v 49.921701 48.996697 -33.517202
v 57.965508 51.873580 -32.551123
v 61.598681 46.427100 -33.517202
v 59.117379 61.445330 -31.102747
v 66.735452 60.849889 -33.517202
v 54.677445 71.229868 -32.009380
v 58.243568 76.417364 -33.517202
v 44.796875 70.691080 -32.129258
v 48.476579 74.300842 -33.517202
v 20.853020 74.270298 -28.612787
v 22.840457 81.126432 -33.517221
v -5.911062 81.857703 -25.782206
v -5.040417 89.377494 -33.517221
v -28.985992 85.802119 -23.769061
v -30.382627 93.703513 -32.905636
v -47.031053 81.987958 -25.782216
v -50.116099 89.520264 -33.517225
v 42.698144 63.452081 -28.017968
v 22.501759 63.999156 -25.341249
v 0.850062 62.960808 -21.187456
v -24.263857 60.864429 -19.092594
v -42.077635 59.819911 -19.965458
v -64.149940 57.176694 -21.632381
v -75.787351 72.179903 -26.331388
v -78.706471 63.394918 -26.242734
v -67.510681 60.330237 -22.469100
v -66.921693 70.900657 -24.329174
v -77.005541 73.907897 -39.420844
v -64.924357 76.993454 -41.267120
v -86.152398 63.982403 -39.420844
v -88.920286 58.376191 -39.420844
v -74.277410 54.446817 -42.786728
v -88.737591 52.908261 -39.489687
v -79.389148 48.152966 -39.731361
v -70.380704 42.770090 -39.958613
v -58.107299 39.135483 -40.306273
v -39.259571 40.254672 -42.254131
v -18.172750 42.389342 -42.454118
v 4.270774 45.143881 -41.091641
v 26.650344 49.674480 -39.420831
v 44.690342 53.299701 -35.612272
v 57.483661 52.486487 -34.483217
v 59.117379 61.445330 -35.931625
v 55.131794 73.064272 -35.024992
v 44.796875 70.691080 -34.905143
v 20.853020 74.270298 -38.421630
v -5.911062 81.857703 -41.252202
v -28.985992 85.802119 -43.265359
v -47.031053 81.987958 -41.252205
v 42.698144 63.452081 -39.016391
v 22.501759 63.999156 -41.693152
v 0.850062 62.960808 -45.846956
v -24.263857 60.864429 -47.941798
v -42.077635 59.819911 -47.068969
v -64.149940 57.176694 -45.402042
v -75.787351 72.179903 -40.703040
v -78.706471 63.394918 -40.791690
v -67.510681 60.330237 -44.565317
v -66.921693 70.900657 -42.705208
v 58.539978 91.652079 -33.517202
v 32.903855 98.477653 -33.517221
v 5.022980 106.728706 -33.517221
v -20.319224 111.054741 -33.517221
v -40.052706 106.871477 -33.517225
v 93.872359 49.237607 -33.517202
v 99.354700 64.405478 -33.517202
v 93.701173 79.953810 -33.517202
v 80.506652 91.683427 -33.517202
v 85.622425 39.962722 -33.459550
v 17.023898 26.738854 -33.517221
v 45.626348 27.545091 -33.517202
v 58.728966 38.449121 -33.517202
v -18.516766 73.817852 -4.407911
v -12.831552 34.346389 -14.121481
v -18.479033 73.555932 -61.732290
v -12.869277 34.608317 -52.147594
v -29.196984 13.588212 -33.517221
v 0.750521 19.319618 -33.517221
vn -0.438706 0.678924 0.588727
vn -0.190743 0.496522 0.846808
vn -0.359651 0.933087 0.000000
vn -0.591884 0.806023 0.000000
vn -0.438706 0.678924 0.588727
vn -0.591884 0.806023 0.000000
vn -0.804610 0.593803 0.000000
vn -0.582788 0.325848 0.744433
vn -0.582788 0.325848 0.744433
vn -0.804610 0.593803 0.000000
vn -0.819814 -0.572629 0.000000
vn -0.617592 -0.423097 0.663000
vn -0.617592 -0.423097 0.663000
vn -0.819814 -0.572629 0.000000
vn -0.306827 -0.951765 -0.000000
vn -0.275282 -0.111262 0.954903
vn -0.275282 -0.111262 0.954903
vn -0.306827 -0.951765 -0.000000
vn -0.217394 0.976084 -0.000000
vn -0.275282 -0.111262 0.954903
vn -0.217394 0.976084 -0.000000
vn -0.746003 0.665943 0.000000
vn -0.573279 0.637822 0.514329
vn -0.573279 0.637822 0.514329
vn -0.746003 0.665943 0.000000
vn -0.573118 -0.819473 0.000000
vn -0.353624 -0.607753 0.711046
vn -0.353624 -0.607753 0.711046
vn -0.573118 -0.819473 0.000000
vn -0.403632 -0.914921 0.000000
vn -0.283875 -0.643255 0.711082
vn -0.283875 -0.643255 0.711082
vn -0.403632 -0.914921 0.000000
vn -0.194421 -0.980918 -0.000000
vn -0.130865 -0.561465 0.817087
vn -0.130865 -0.561465 0.817087
vn -0.194421 -0.980918 -0.000000
vn 0.043915 -0.999035 0.000000
vn -0.004922 -0.539771 0.841798
vn -0.004922 -0.539771 0.841798
vn 0.043915 -0.999035 0.000000
vn 0.099814 -0.781901 0.615361
vn 0.089526 -0.532947 0.841399
vn 0.089526 -0.532947 0.841399
vn 0.099814 -0.781901 0.615361
vn 0.158431 -0.713954 0.682034
vn 0.147858 -0.473135 0.868494
vn 0.147858 -0.473135 0.868494
vn 0.158431 -0.713954 0.682034
vn 0.223350 -0.593562 0.773175
vn 0.209137 -0.411467 0.887106
vn 0.209137 -0.411467 0.887106
vn 0.223350 -0.593562 0.773175
vn 0.269994 -0.962218 -0.035227
vn 0.197125 -0.335627 0.921138
vn 0.197125 -0.335627 0.921138
vn 0.269994 -0.962218 -0.035227
vn 0.606835 -0.791113 -0.076757
vn 0.154571 -0.257025 0.953963
vn 0.154571 -0.257025 0.953963
vn 0.606835 -0.791113 -0.076757
vn 0.302442 0.020805 0.952941
vn 0.221888 -0.007077 0.975047
vn 0.221888 -0.007077 0.975047
vn 0.302442 0.020805 0.952941
vn 0.693537 0.719444 0.037513
vn 0.177753 0.316369 0.931834
vn 0.177753 0.316369 0.931834
vn 0.693537 0.719444 0.037513
vn 0.173181 0.980298 0.094998
vn 0.170819 0.460248 0.871202
vn 0.170819 0.460248 0.871202
vn 0.173181 0.980298 0.094998
vn 0.223832 0.635742 0.738737
vn 0.217746 0.502869 0.836486
vn 0.217746 0.502869 0.836486
vn 0.223832 0.635742 0.738737
vn 0.208421 0.749902 0.627859
vn 0.172864 0.499922 0.848644
vn 0.172864 0.499922 0.848644
vn 0.208421 0.749902 0.627859
vn -0.009538 0.796409 0.604684
vn -0.000914 0.497724 0.867335
vn -0.000914 0.497724 0.867335
vn -0.009538 0.796409 0.604684
vn -0.287801 0.957659 -0.007704
vn -0.166495 0.462541 0.870824
vn -0.166495 0.462541 0.870824
vn -0.287801 0.957659 -0.007704
vn -0.359651 0.933087 0.000000
vn -0.190743 0.496522 0.846808
vn 0.177753 0.316369 0.931834
vn 0.170819 0.460248 0.871202
vn 0.200352 0.079657 0.976480
vn 0.221888 -0.007077 0.975047
vn 0.170819 0.460248 0.871202
vn 0.217746 0.502869 0.836486
vn 0.210754 0.086503 0.973704
vn 0.200352 0.079657 0.976480
vn 0.217746 0.502869 0.836486
vn 0.172864 0.499922 0.848644
vn 0.159172 0.037600 0.986535
vn 0.210754 0.086503 0.973704
vn 0.172864 0.499922 0.848644
vn -0.000914 0.497724 0.867335
vn 0.030999 -0.002353 0.999517
vn 0.159172 0.037600 0.986535
vn -0.000914 0.497724 0.867335
vn -0.166495 0.462541 0.870824
vn -0.085009 -0.016363 0.996246
vn 0.030999 -0.002353 0.999517
vn -0.166495 0.462541 0.870824
vn -0.190743 0.496522 0.846808
vn -0.112182 -0.039307 0.992910
vn -0.085009 -0.016363 0.996246
vn 0.221888 -0.007077 0.975047
vn 0.200352 0.079657 0.976480
vn 0.197125 -0.335627 0.921138
vn 0.154571 -0.257025 0.953963
vn 0.200352 0.079657 0.976480
vn 0.210754 0.086503 0.973704
vn 0.209137 -0.411467 0.887106
vn 0.197125 -0.335627 0.921138
vn 0.210754 0.086503 0.973704
vn 0.159172 0.037600 0.986535
vn 0.147858 -0.473135 0.868494
vn 0.209137 -0.411467 0.887106
vn 0.159172 0.037600 0.986535
vn 0.030999 -0.002353 0.999517
vn 0.089526 -0.532947 0.841399
vn 0.147858 -0.473135 0.868494
vn 0.030999 -0.002353 0.999517
vn -0.085009 -0.016363 0.996246
vn -0.004922 -0.539771 0.841798
vn 0.089526 -0.532947 0.841399
vn -0.085009 -0.016363 0.996246
vn -0.112182 -0.039307 0.992910
vn -0.130865 -0.561465 0.817087
vn -0.004922 -0.539771 0.841798
vn -0.284794 0.243501 0.927146
vn -0.295118 0.188550 0.936672
vn -0.206168 0.202884 0.957253
vn -0.192732 0.243168 0.950644
vn -0.582788 0.325848 0.744433
vn -0.617592 -0.423097 0.663000
vn -0.275282 -0.111262 0.954903
vn -0.112182 -0.039307 0.992910
vn -0.275282 -0.111262 0.954903
vn -0.573279 0.637822 0.514329
vn -0.353624 -0.607753 0.711046
vn -0.275282 -0.111262 0.954903
vn -0.353624 -0.607753 0.711046
vn -0.283875 -0.643255 0.711082
vn -0.130865 -0.561465 0.817087
vn -0.112182 -0.039307 0.992910
vn -0.275282 -0.111262 0.954903
vn -0.130865 -0.561465 0.817087
vn -0.438706 0.678924 0.588727
vn -0.582788 0.325848 0.744433
vn -0.295118 0.188550 0.936672
vn -0.284794 0.243501 0.927146
vn -0.582788 0.325848 0.744433
vn -0.112182 -0.039307 0.992910
vn -0.206168 0.202884 0.957253
vn -0.295118 0.188550 0.936672
vn -0.112182 -0.039307 0.992910
vn -0.190743 0.496522 0.846808
vn -0.192732 0.243168 0.950644
vn -0.206168 0.202884 0.957253
vn -0.190743 0.496522 0.846808
vn -0.438706 0.678924 0.588727
vn -0.284794 0.243501 0.927146
vn -0.192732 0.243168 0.950644
vn -0.438706 0.678923 -0.588728
vn -0.591884 0.806023 0.000000
vn -0.359651 0.933087 0.000000
vn -0.190743 0.496521 -0.846808
vn -0.438706 0.678923 -0.588728
vn -0.582788 0.325845 -0.744435
vn -0.804610 0.593803 0.000000
vn -0.591884 0.806023 0.000000
vn -0.582788 0.325845 -0.744435
vn -0.617591 -0.423096 -0.663002
vn -0.819814 -0.572629 0.000000
vn -0.804610 0.593803 0.000000
vn -0.617591 -0.423096 -0.663002
vn -0.275282 -0.111263 -0.954903
vn -0.306827 -0.951765 -0.000000
vn -0.819814 -0.572629 0.000000
vn -0.275282 -0.111263 -0.954903
vn -0.217394 0.976084 -0.000000
vn -0.306827 -0.951765 -0.000000
vn -0.275282 -0.111263 -0.954903
vn -0.573280 0.637819 -0.514332
vn -0.746003 0.665943 0.000000
vn -0.217394 0.976084 -0.000000
vn -0.573280 0.637819 -0.514332
vn -0.353623 -0.607750 -0.711049
vn -0.573118 -0.819473 0.000000
vn -0.746003 0.665943 0.000000
vn -0.353623 -0.607750 -0.711049
vn -0.283874 -0.643253 -0.711084
vn -0.403632 -0.914921 0.000000
vn -0.573118 -0.819473 0.000000
vn -0.283874 -0.643253 -0.711084
vn -0.130865 -0.561464 -0.817088
vn -0.194421 -0.980918 -0.000000
vn -0.403632 -0.914921 0.000000
vn -0.130865 -0.561464 -0.817088
vn -0.004921 -0.539770 -0.841798
vn 0.043915 -0.999035 0.000000
vn -0.194421 -0.980918 -0.000000
vn -0.004921 -0.539770 -0.841798
vn 0.089527 -0.532946 -0.841400
vn 0.099815 -0.781898 -0.615363
vn 0.043915 -0.999035 0.000000
vn 0.089527 -0.532946 -0.841400
vn 0.147858 -0.473133 -0.868494
vn 0.158430 -0.713950 -0.682037
vn 0.099815 -0.781898 -0.615363
vn 0.147858 -0.473133 -0.868494
vn 0.209137 -0.411465 -0.887107
vn 0.223350 -0.593555 -0.773180
vn 0.158430 -0.713950 -0.682037
vn 0.209137 -0.411465 -0.887107
vn 0.199615 -0.338412 -0.919582
vn 0.269994 -0.962218 -0.035227
vn 0.223350 -0.593555 -0.773180
vn 0.199615 -0.338412 -0.919582
vn 0.151947 -0.256969 -0.954400
vn 0.606835 -0.791113 -0.076757
vn 0.269994 -0.962218 -0.035227
vn 0.151947 -0.256969 -0.954400
vn 0.223604 -0.003892 -0.974672
vn 0.310731 0.012485 -0.950416
vn 0.606835 -0.791113 -0.076757
vn 0.223604 -0.003892 -0.974672
vn 0.176030 0.323481 -0.929717
vn 0.693537 0.719444 0.037513
vn 0.310731 0.012485 -0.950416
vn 0.176030 0.323481 -0.929717
vn 0.165030 0.450108 -0.877592
vn 0.173181 0.980298 0.094998
vn 0.693537 0.719444 0.037513
vn 0.165030 0.450108 -0.877592
vn 0.217746 0.502867 -0.836487
vn 0.223832 0.635740 -0.738738
vn 0.173181 0.980298 0.094998
vn 0.217746 0.502867 -0.836487
vn 0.170017 0.509246 -0.843660
vn 0.198893 0.764275 -0.613454
vn 0.223832 0.635740 -0.738738
vn 0.170017 0.509246 -0.843660
vn -0.001417 0.514949 -0.857220
vn -0.006972 0.817298 -0.576172
vn 0.198893 0.764275 -0.613454
vn -0.001417 0.514949 -0.857220
vn -0.163014 0.473676 -0.865481
vn -0.287801 0.957659 -0.007704
vn -0.006972 0.817298 -0.576172
vn -0.163014 0.473676 -0.865481
vn -0.190743 0.496521 -0.846808
vn -0.359651 0.933087 0.000000
vn -0.287801 0.957659 -0.007704
vn 0.176030 0.323481 -0.929717
vn 0.223604 -0.003892 -0.974672
vn 0.197111 0.079269 -0.977171
vn 0.165030 0.450108 -0.877592
vn 0.165030 0.450108 -0.877592
vn 0.197111 0.079269 -0.977171
vn 0.210755 0.086501 -0.973704
vn 0.217746 0.502867 -0.836487
vn 0.217746 0.502867 -0.836487
vn 0.210755 0.086501 -0.973704
vn 0.159172 0.037599 -0.986535
vn 0.170017 0.509246 -0.843660
vn 0.170017 0.509246 -0.843660
vn 0.159172 0.037599 -0.986535
vn 0.031000 -0.002353 -0.999517
vn -0.001417 0.514949 -0.857220
vn -0.001417 0.514949 -0.857220
vn 0.031000 -0.002353 -0.999517
vn -0.085008 -0.016363 -0.996246
vn -0.163014 0.473676 -0.865481
vn -0.163014 0.473676 -0.865481
vn -0.085008 -0.016363 -0.996246
vn -0.112183 -0.039308 -0.992910
vn -0.190743 0.496521 -0.846808
vn 0.223604 -0.003892 -0.974672
vn 0.151947 -0.256969 -0.954400
vn 0.199615 -0.338412 -0.919582
vn 0.197111 0.079269 -0.977171
vn 0.197111 0.079269 -0.977171
vn 0.199615 -0.338412 -0.919582
vn 0.209137 -0.411465 -0.887107
vn 0.210755 0.086501 -0.973704
vn 0.210755 0.086501 -0.973704
vn 0.209137 -0.411465 -0.887107
vn 0.147858 -0.473133 -0.868494
vn 0.159172 0.037599 -0.986535
vn 0.159172 0.037599 -0.986535
vn 0.147858 -0.473133 -0.868494
vn 0.089527 -0.532946 -0.841400
vn 0.031000 -0.002353 -0.999517
vn 0.031000 -0.002353 -0.999517
vn 0.089527 -0.532946 -0.841400
vn -0.004921 -0.539770 -0.841798
vn -0.085008 -0.016363 -0.996246
vn -0.085008 -0.016363 -0.996246
vn -0.004921 -0.539770 -0.841798
vn -0.130865 -0.561464 -0.817088
vn -0.112183 -0.039308 -0.992910
vn -0.284794 0.243501 -0.927146
vn -0.192733 0.243168 -0.950644
vn -0.206170 0.202884 -0.957252
vn -0.295118 0.188550 -0.936672
vn -0.582788 0.325845 -0.744435
vn -0.112183 -0.039308 -0.992910
vn -0.275282 -0.111263 -0.954903
vn -0.617591 -0.423096 -0.663002
vn -0.275282 -0.111263 -0.954903
vn -0.353623 -0.607750 -0.711049
vn -0.573280 0.637819 -0.514332
vn -0.275282 -0.111263 -0.954903
vn -0.130865 -0.561464 -0.817088
vn -0.283874 -0.643253 -0.711084
vn -0.353623 -0.607750 -0.711049
vn -0.112183 -0.039308 -0.992910
vn -0.130865 -0.561464 -0.817088
vn -0.275282 -0.111263 -0.954903
vn -0.438706 0.678923 -0.588728
vn -0.284794 0.243501 -0.927146
vn -0.295118 0.188550 -0.936672
vn -0.582788 0.325845 -0.744435
vn -0.582788 0.325845 -0.744435
vn -0.295118 0.188550 -0.936672
vn -0.206170 0.202884 -0.957252
vn -0.112183 -0.039308 -0.992910
vn -0.112183 -0.039308 -0.992910
vn -0.206170 0.202884 -0.957252
vn -0.192733 0.243168 -0.950644
vn -0.190743 0.496521 -0.846808
vn -0.190743 0.496521 -0.846808
vn -0.192733 0.243168 -0.950644
vn -0.284794 0.243501 -0.927146
vn -0.438706 0.678923 -0.588728
vn 0.000001 -0.000000 -1.000000
vn 0.000000 -0.000000 -1.000000
vn 0.000000 -0.000000 -1.000000
vn 0.000001 -0.000000 -1.000000
vn 0.000000 -0.000000 -1.000000
vn -0.009427 -0.006645 -0.999933
vn -0.006216 -0.004382 -0.999971
vn 0.000000 -0.000000 -1.000000
vn -0.009427 -0.006645 -0.999933
vn 0.006930 -0.025952 -0.999639
vn -0.007644 -0.017503 -0.999818
vn -0.006216 -0.004382 -0.999971
vn 0.006930 -0.025952 -0.999639
vn 0.027270 -0.037732 -0.998916
vn 0.027270 -0.037732 -0.998916
vn -0.007644 -0.017503 -0.999818
vn 0.000061 -0.000702 -1.000000
vn -0.000000 0.000000 -1.000000
vn -0.000000 0.000000 -1.000000
vn 0.000074 -0.000849 -1.000000
vn -0.000000 0.000000 -1.000000
vn -0.000000 0.000000 -1.000000
vn -0.000000 0.000000 -1.000000
vn -0.000000 0.000000 -1.000000
vn -0.000000 0.000000 -1.000000
vn -0.000000 0.000000 -1.000000
vn 0.000000 0.000000 -1.000000
vn 0.000061 -0.000702 -1.000000
vn 0.000074 -0.000849 -1.000000
vn 0.000730 -0.008388 -0.999965
vn 0.000000 0.000000 -1.000000
vn 0.000000 -0.000000 -1.000000
vn 0.000001 -0.000000 -1.000000
vn 0.000000 -0.000000 -1.000000
vn 0.000001 -0.000000 -1.000000
vn 0.000001 -0.000000 -1.000000
vn 0.000001 -0.000000 -1.000000
vn 0.000001 -0.000000 -1.000000
vn 0.000001 -0.000000 -1.000000
vn 0.000001 -0.000000 -1.000000
vn 0.000001 -0.000000 -1.000000
vn -0.481272 -0.319408 0.816306
vn -0.481272 -0.319408 0.816306
vn -0.481272 -0.319408 0.816306
vn -0.481272 -0.319408 0.816306
vn 0.456043 0.320093 0.830401
vn 0.456043 0.320093 0.830401
vn 0.456043 0.320093 0.830401
vn 0.456043 0.320093 0.830401
vn 0.000000 0.000000 -1.000000
vn 0.000000 0.000000 -1.000000
vn 0.000000 0.000000 -1.000000
vn 0.000000 0.000000 -1.000000
usemtl Material_1
f 1//1 2//2 4//3
f 1//1 4//3 3//4
f 1//5 3//6 6//7
f 1//5 6//7 5//8
f 5//9 6//10 8//11
f 5//9 8//11 7//12
f 7//13 8//14 10//15
f 7//13 10//15 9//16
f 9//17 10//18 11//19
f 9//20 11//21 13//22
f 9//20 13//22 12//23
f 12//24 13//25 15//26
f 12//24 15//26 14//27
f 14//28 15//29 17//30
f 14//28 17//30 16//31
f 16//32 17//33 19//34
f 16//32 19//34 18//35
f 18//36 19//37 21//38
f 18//36 21//38 20//39
f 20//40 21//41 23//42
f 20//40 23//42 22//43
f 22//44 23//45 25//46
f 22//44 25//46 24//47
f 24//48 25//49 27//50
f 24//48 27//50 26//51
f 26//52 27//53 29//54
f 26//52 29//54 28//55
f 28//56 29//57 31//58
f 28//56 31//58 30//59
f 30//60 31//61 33//62
f 30//60 33//62 32//63
f 32//64 33//65 35//66
f 32//64 35//66 34//67
f 34//68 35//69 37//70
f 34//68 37//70 36//71
f 36//72 37//73 39//74
f 36//72 39//74 38//75
f 38//76 39//77 41//78
f 38//76 41//78 40//79
f 40//80 41//81 43//82
f 40//80 43//82 42//83
f 42//84 43//85 45//86
f 42//84 45//86 44//87
f 44//88 45//89 4//90
f 44//88 4//90 2//91
f 34//92 36//93 46//94
f 34//92 46//94 32//95
f 36//96 38//97 47//98
f 36//96 47//98 46//99
f 38//100 40//101 48//102
f 38//100 48//102 47//103
f 40//104 42//105 49//106
f 40//104 49//106 48//107
f 42//108 44//109 50//110
f 42//108 50//110 49//111
f 44//112 2//113 51//114
f 44//112 51//114 50//115
f 32//116 46//117 28//118
f 32//116 28//118 30//119
f 46//120 47//121 26//122
f 46//120 26//122 28//123
f 47//124 48//125 24//126
f 47//124 24//126 26//127
f 48//128 49//129 22//130
f 48//128 22//130 24//131
f 49//132 50//133 20//134
f 49//132 20//134 22//135
f 50//136 51//137 18//138
f 50//136 18//138 20//139
f 52//140 53//141 54//142
f 52//140 54//142 55//143
f 5//144 7//145 9//146
f 5//144 9//146 51//147
f 9//148 12//149 14//150
f 9//151 14//152 16//153
f 9//151 16//153 18//154
f 51//155 9//156 18//157
f 1//158 5//159 53//160
f 1//158 53//160 52//161
f 5//162 51//163 54//164
f 5//162 54//164 53//165
f 51//166 2//167 55//168
f 51//166 55//168 54//169
f 2//170 1//171 52//172
f 2//170 52//172 55//173
f 56//174 3//175 4//176
f 56//174 4//176 57//177
f 56//178 58//179 6//180
f 56//178 6//180 3//181
f 58//182 59//183 8//184
f 58//182 8//184 6//185
f 59//186 60//187 10//188
f 59//186 10//188 8//189
f 60//190 11//191 10//192
f 60//193 61//194 13//195
f 60//193 13//195 11//196
f 61//197 62//198 15//199
f 61//197 15//199 13//200
f 62//201 63//202 17//203
f 62//201 17//203 15//204
f 63//205 64//206 19//207
f 63//205 19//207 17//208
f 64//209 65//210 21//211
f 64//209 21//211 19//212
f 65//213 66//214 23//215
f 65//213 23//215 21//216
f 66//217 67//218 25//219
f 66//217 25//219 23//220
f 67//221 68//222 27//223
f 67//221 27//223 25//224
f 68//225 69//226 29//227
f 68//225 29//227 27//228
f 69//229 70//230 31//231
f 69//229 31//231 29//232
f 70//233 71//234 33//235
f 70//233 33//235 31//236
f 71//237 72//238 35//239
f 71//237 35//239 33//240
f 72//241 73//242 37//243
f 72//241 37//243 35//244
f 73//245 74//246 39//247
f 73//245 39//247 37//248
f 74//249 75//250 41//251
f 74//249 41//251 39//252
f 75//253 76//254 43//255
f 75//253 43//255 41//256
f 76//257 77//258 45//259
f 76//257 45//259 43//260
f 77//261 57//262 4//263
f 77//261 4//263 45//264
f 72//265 71//266 78//267
f 72//265 78//267 73//268
f 73//269 78//270 79//271
f 73//269 79//271 74//272
f 74//273 79//274 80//275
f 74//273 80//275 75//276
f 75//277 80//278 81//279
f 75//277 81//279 76//280
f 76//281 81//282 82//283
f 76//281 82//283 77//284
f 77//285 82//286 83//287
f 77//285 83//287 57//288
f 71//289 70//290 69//291
f 71//289 69//291 78//292
f 78//293 69//294 68//295
f 78//293 68//295 79//296
f 79//297 68//298 67//299
f 79//297 67//299 80//300
f 80//301 67//302 66//303
f 80//301 66//303 81//304
f 81//305 66//306 65//307
f 81//305 65//307 82//308
f 82//309 65//310 64//311
f 82//309 64//311 83//312
f 84//313 87//314 86//315
f 84//313 86//315 85//316
f 58//317 83//318 60//319
f 58//317 60//319 59//320
f 60//321 62//322 61//323
f 60//324 64//325 63//326
f 60//324 63//326 62//327
f 83//328 64//329 60//330
f 56//331 84//332 85//333
f 56//331 85//333 58//334
f 58//335 85//336 86//337
f 58//335 86//337 83//338
f 83//339 86//340 87//341
f 83//339 87//341 57//342
f 57//343 87//344 84//345
f 57//343 84//345 56//346
f 37//347 39//348 89//349
f 37//347 89//349 88//350
f 39//351 41//352 90//353
f 39//351 90//353 89//354
f 41//355 43//356 91//357
f 41//355 91//357 90//358
f 43//359 45//360 92//361
f 43//359 92//361 91//362
f 31//363 33//364 94//365
f 31//363 94//365 93//366
f 33//367 35//368 95//369
f 33//367 95//369 94//370
f 95//371 35//372 96//373
f 31//374 93//375 97//376
f 23//377 25//378 98//379
f 25//380 27//381 99//382
f 25//380 99//382 98//383
f 27//384 29//385 100//386
f 27//384 100//386 99//387
f 50//388 20//389 102//390
f 50//388 102//390 101//391
f 82//392 65//393 104//394
f 82//392 104//394 103//395
f 21//396 23//397 106//398
f 21//396 106//398 105//399
